<svg xmlns="http://www.w3.org/2000/svg" width="12" height="60" viewBox="0 0 6 30"><defs><pattern id="t" width="1.25" height="4" patternUnits="userSpaceOnUse" patternTransform="rotate(-58)"><rect width="1.25" height="4" fill="#fafafa"/><rect width=".5" height="4" fill="#e6e6e6"/></pattern><radialGradient id="h"><stop offset="0" stop-opacity=".16"/><stop offset="1" stop-opacity="0"/></radialGradient><g id="s"><circle cx="-3.2" r=".9" fill="url(#h)"/><circle cx="3.2" r=".9" fill="url(#h)"/><path d="M-3.5 0C-2.7 -.8 -1.9 -.8 -1.1 -.8H1.1C1.9 -.8 2.7 -.8 3.5 0C2.7 .8 1.9 .8 1.1 .8H-1.1C-1.9 .8 -2.7 .8 -3.5 0Z" fill="url(#t)"/><rect x="-1.7" y="-.3" width="3.4" height=".34" rx=".17" fill="#fff" opacity=".7"/></g><filter id="d" x="-20%" y="-30%" width="140%" height="160%"><feGaussianBlur in="SourceAlpha" stdDeviation=".3"/><feOffset dy=".6"/><feComponentTransfer result="s"><feFuncA type="linear" slope=".25"/></feComponentTransfer><feFlood flood-color="#fff" flood-opacity=".22"/><feComposite in2="SourceAlpha" operator="in"/><feOffset dy="-.35"/><feMerge><feMergeNode in="s"/><feMergeNode/><feMergeNode in="SourceGraphic"/></feMerge></filter><filter id="g"><feGaussianBlur stdDeviation=".7"/></filter></defs><path d="M3 -10V40" fill="none" stroke="#fff" stroke-opacity=".05" stroke-width="3.4" filter="url(#g)"/><path d="M3 -10V40" fill="none" stroke="#000" stroke-opacity=".14" stroke-width="2" filter="url(#g)"/><g filter="url(#d)"><use href="#s" transform="translate(3 5) rotate(89.3)"/><use href="#s" transform="translate(3 15) rotate(90.1)"/><use href="#s" transform="translate(3.1 25) rotate(90)"/></g></svg>