<svg xmlns="http://www.w3.org/2000/svg" xmlns:xlink="http://www.w3.org/1999/xlink" width="60" height="60" viewBox="0 0 30 30"><defs><pattern id="t" width="1.25" height="4" patternUnits="userSpaceOnUse" patternTransform="rotate(-58)"><rect width="1.25" height="4" fill="#f3f3f3"/><rect width=".5" height="4" fill="#d8d8d8"/></pattern><linearGradient id="e"><stop offset="0" stop-color="#fff" stop-opacity="0"/><stop offset=".09" stop-color="#fff"/><stop offset=".91" stop-color="#fff"/><stop offset="1" stop-color="#fff" stop-opacity="0"/></linearGradient><mask id="m" maskContentUnits="objectBoundingBox"><rect width="1" height="1" fill="url(#e)"/></mask><radialGradient id="h"><stop offset="0" stop-opacity=".16"/><stop offset="1" stop-opacity="0"/></radialGradient><g id="s"><circle cx="-3.2" r=".9" fill="url(#h)"/><circle cx="3.2" r=".9" fill="url(#h)"/><path d="M-3.5 0C-2.7 -0.72 -1.9 -0.72 -1.1 -0.72H1.1C1.9 -0.72 2.7 -0.72 3.5 0C2.7 0.72 1.9 0.72 1.1 0.72H-1.1C-1.9 0.72 -2.7 0.72 -3.5 0Z" fill="url(#t)" mask="url(#m)"/><rect x="-1.7" y="-0.29" width="3.4" height=".3" rx=".15" fill="#fff" opacity=".55"/><path d="M-1.2 -0.62l-.5 -.7M1.6 0.62l.6 .6M0.2 -0.62l.4 -.6" stroke="#f3f3f3" stroke-width=".22" stroke-linecap="round" opacity=".35"/></g><filter id="d" x="-20%" y="-30%" width="140%" height="160%"><feGaussianBlur in="SourceAlpha" stdDeviation=".3"/><feOffset dy=".6"/><feComponentTransfer result="s"><feFuncA type="linear" slope=".25"/></feComponentTransfer><feFlood flood-color="#fff" flood-opacity=".15"/><feComposite in2="SourceAlpha" operator="in"/><feOffset dy="-.35"/><feMerge><feMergeNode in="s"/><feMergeNode/><feMergeNode in="SourceGraphic"/></feMerge></filter><filter id="g"><feGaussianBlur stdDeviation=".7"/></filter></defs><path d="M3 10A7 7 0 0 1 10 3H20A7 7 0 0 1 27 10V20A7 7 0 0 1 20 27H10A7 7 0 0 1 3 20Z" fill="none" stroke="#000" stroke-opacity=".17" stroke-width="1.9" filter="url(#g)"/><g filter="url(#d)"><use href="#s" transform="translate(15 3.05) rotate(-0.7) scale(0.99 1)"/><use href="#s" transform="translate(26.87 15) rotate(90.25) scale(0.98 1)"/><use href="#s" transform="translate(15 26.99) rotate(179.74) scale(1.01 1)"/><use href="#s" transform="translate(3.11 15) rotate(270.05) scale(1.01 1)"/><use href="#s" transform="translate(5.09 5.09) rotate(314.63) scale(1.03 1)"/><use href="#s" transform="translate(24.91 5.09) rotate(404.12) scale(1.01 1)"/><use href="#s" transform="translate(25.02 25.02) rotate(134.92) scale(0.96 1)"/><use href="#s" transform="translate(5.04 24.96) rotate(224.16) scale(1.03 1)"/></g></svg>