<svg xmlns="http://www.w3.org/2000/svg" width="100%" height="100%"><style>svg{--n:7;--k:0.81}.s{display:none;transform-box:view-box;transform:translate(50%,50%) rotate(calc(var(--i)*360deg/var(--n))) translate(calc(50% - 3px + var(--o))) rotate(calc(90deg + var(--t))) scale(calc(var(--k)*var(--f)),1)}.s:nth-of-type(-n+7){display:inline}.g{r:calc(50% - 3px)}.b{display:none}@media(min-width:24px){.b{display:inline}.m{display:none}}@media(min-width:24.5px){svg{--n:8;--k:0.73}.s:nth-of-type(-n+8){display:inline}}@media(min-width:27px){svg{--n:9;--k:0.73}.s:nth-of-type(-n+9){display:inline}}@media(min-width:29.5px){svg{--n:10;--k:0.74}.s:nth-of-type(-n+10){display:inline}}@media(min-width:31.8px){svg{--n:11;--k:0.74}.s:nth-of-type(-n+11){display:inline}}@media(min-width:34.2px){svg{--n:12;--k:0.74}.s:nth-of-type(-n+12){display:inline}}@media(min-width:36.8px){svg{--n:13;--k:0.74}.s:nth-of-type(-n+13){display:inline}}@media(min-width:39.2px){svg{--n:14;--k:0.75}.s:nth-of-type(-n+14){display:inline}}@media(min-width:42px){svg{--n:15;--k:0.75}.s:nth-of-type(-n+15){display:inline}}@media(min-width:45px){svg{--n:16;--k:0.77}.s:nth-of-type(-n+16){display:inline}}@media(min-width:48px){svg{--n:17;--k:0.78}.s:nth-of-type(-n+17){display:inline}}@media(min-width:51px){svg{--n:18;--k:0.79}.s:nth-of-type(-n+18){display:inline}}@media(min-width:54.2px){svg{--n:19;--k:0.80}.s:nth-of-type(-n+19){display:inline}}@media(min-width:57.5px){svg{--n:20;--k:0.81}.s:nth-of-type(-n+20){display:inline}}@media(min-width:61px){svg{--n:21;--k:0.82}.s:nth-of-type(-n+21){display:inline}}@media(min-width:64.5px){svg{--n:22;--k:0.84}.s:nth-of-type(-n+22){display:inline}}@media(min-width:68px){svg{--n:23;--k:0.85}.s:nth-of-type(-n+23){display:inline}}@media(min-width:71.8px){svg{--n:24;--k:0.86}.s:nth-of-type(-n+24){display:inline}}@media(min-width:75.5px){svg{--n:25;--k:0.87}.s:nth-of-type(-n+25){display:inline}}@media(min-width:79.5px){svg{--n:26;--k:0.89}.s:nth-of-type(-n+26){display:inline}}@media(min-width:83.5px){svg{--n:27;--k:0.90}.s:nth-of-type(-n+27){display:inline}}@media(min-width:87.5px){svg{--n:28;--k:0.91}.s:nth-of-type(-n+28){display:inline}}@media(min-width:91.8px){svg{--n:29;--k:0.93}.s:nth-of-type(-n+29){display:inline}}@media(min-width:96.2px){svg{--n:30;--k:0.95}.s:nth-of-type(-n+30){display:inline}}@media(min-width:100.8px){svg{--n:31;--k:0.96}.s:nth-of-type(-n+31){display:inline}}@media(min-width:105.5px){svg{--n:32;--k:0.98}.s:nth-of-type(-n+32){display:inline}}@media(min-width:109.5px){svg{--n:33;--k:0.99}.s:nth-of-type(-n+33){display:inline}}@media(min-width:112.8px){svg{--n:34;--k:0.99}.s:nth-of-type(-n+34){display:inline}}@media(min-width:116px){svg{--n:35;--k:0.99}.s:nth-of-type(-n+35){display:inline}}@media(min-width:119.2px){svg{--n:36;--k:0.99}.s:nth-of-type(-n+36){display:inline}}@media(min-width:122.2px){svg{--n:37;--k:0.99}.s:nth-of-type(-n+37){display:inline}}@media(min-width:125.5px){svg{--n:38;--k:0.99}.s:nth-of-type(-n+38){display:inline}}@media(min-width:128.8px){svg{--n:39;--k:0.99}.s:nth-of-type(-n+39){display:inline}}@media(min-width:131.8px){svg{--n:40;--k:0.99}.s:nth-of-type(-n+40){display:inline}}@media(min-width:135px){svg{--n:41;--k:0.99}.s:nth-of-type(-n+41){display:inline}}@media(min-width:138.2px){svg{--n:42;--k:0.99}.s:nth-of-type(-n+42){display:inline}}@media(min-width:141.5px){svg{--n:43;--k:0.99}.s:nth-of-type(-n+43){display:inline}}@media(min-width:144.5px){svg{--n:44;--k:0.99}.s:nth-of-type(-n+44){display:inline}}@media(min-width:147.8px){svg{--n:45;--k:0.99}.s:nth-of-type(-n+45){display:inline}}@media(min-width:151px){svg{--n:46;--k:0.99}.s:nth-of-type(-n+46){display:inline}}@media(min-width:154.2px){svg{--n:47;--k:0.99}.s:nth-of-type(-n+47){display:inline}}@media(min-width:157.2px){svg{--n:48;--k:0.99}.s:nth-of-type(-n+48){display:inline}}@media(min-width:160.5px){svg{--n:49;--k:0.99}.s:nth-of-type(-n+49){display:inline}}@media(min-width:163.8px){svg{--n:50;--k:0.99}.s:nth-of-type(-n+50){display:inline}}@media(min-width:166.8px){svg{--n:51;--k:0.99}.s:nth-of-type(-n+51){display:inline}}@media(min-width:170px){svg{--n:52;--k:0.99}.s:nth-of-type(-n+52){display:inline}}@media(min-width:173.2px){svg{--n:53;--k:0.99}.s:nth-of-type(-n+53){display:inline}}@media(min-width:176.5px){svg{--n:54;--k:0.99}.s:nth-of-type(-n+54){display:inline}}@media(min-width:179.5px){svg{--n:55;--k:0.99}.s:nth-of-type(-n+55){display:inline}}@media(min-width:182.8px){svg{--n:56;--k:0.99}.s:nth-of-type(-n+56){display:inline}}@media(min-width:186px){svg{--n:57;--k:0.99}.s:nth-of-type(-n+57){display:inline}}@media(min-width:189.2px){svg{--n:58;--k:0.99}.s:nth-of-type(-n+58){display:inline}}@media(min-width:192.2px){svg{--n:59;--k:0.99}.s:nth-of-type(-n+59){display:inline}}@media(min-width:195.5px){svg{--n:60;--k:0.99}.s:nth-of-type(-n+60){display:inline}}@media(min-width:198.8px){svg{--n:61;--k:0.99}.s:nth-of-type(-n+61){display:inline}}@media(min-width:202px){svg{--n:62;--k:0.99}.s:nth-of-type(-n+62){display:inline}}@media(min-width:205px){svg{--n:63;--k:0.99}.s:nth-of-type(-n+63){display:inline}}@media(min-width:208.2px){svg{--n:64;--k:0.99}.s:nth-of-type(-n+64){display:inline}}@media(min-width:211.5px){svg{--n:65;--k:0.99}.s:nth-of-type(-n+65){display:inline}}@media(min-width:214.5px){svg{--n:66;--k:0.99}.s:nth-of-type(-n+66){display:inline}}@media(min-width:217.8px){svg{--n:67;--k:0.99}.s:nth-of-type(-n+67){display:inline}}@media(min-width:221px){svg{--n:68;--k:0.99}.s:nth-of-type(-n+68){display:inline}}@media(min-width:224.2px){svg{--n:69;--k:0.99}.s:nth-of-type(-n+69){display:inline}}@media(min-width:227.2px){svg{--n:70;--k:0.99}.s:nth-of-type(-n+70){display:inline}}@media(min-width:230.5px){svg{--n:71;--k:0.99}.s:nth-of-type(-n+71){display:inline}}@media(min-width:233.8px){svg{--n:72;--k:0.99}.s:nth-of-type(-n+72){display:inline}}@media(min-width:237px){svg{--n:73;--k:0.99}.s:nth-of-type(-n+73){display:inline}}@media(min-width:240px){svg{--n:74;--k:0.99}.s:nth-of-type(-n+74){display:inline}}@media(min-width:243.2px){svg{--n:75;--k:0.99}.s:nth-of-type(-n+75){display:inline}}@media(min-width:246.5px){svg{--n:76;--k:0.99}.s:nth-of-type(-n+76){display:inline}}@media(min-width:249.8px){svg{--n:77;--k:0.99}.s:nth-of-type(-n+77){display:inline}}@media(min-width:252.8px){svg{--n:78;--k:0.99}.s:nth-of-type(-n+78){display:inline}}@media(min-width:256px){svg{--n:79;--k:0.99}.s:nth-of-type(-n+79){display:inline}}</style><defs><pattern id="t" width="1.25" height="4" patternUnits="userSpaceOnUse" patternTransform="rotate(-58)"><rect width="1.25" height="4" fill="#fafafa"/><rect width=".5" height="4" fill="#e6e6e6"/></pattern><radialGradient id="h"><stop offset="0" stop-opacity=".16"/><stop offset="1" stop-opacity="0"/></radialGradient><g id="s"><circle cx="-3.2" r=".9" fill="url(#h)"/><circle cx="3.2" r=".9" fill="url(#h)"/><path d="M-3.5 0C-2.7 -.8 -1.9 -.8 -1.1 -.8H1.1C1.9 -.8 2.7 -.8 3.5 0C2.7 .8 1.9 .8 1.1 .8H-1.1C-1.9 .8 -2.7 .8 -3.5 0Z" fill="url(#t)"/><rect x="-1.7" y="-.3" width="3.4" height=".34" rx=".17" fill="#fff" opacity=".7"/></g><filter id="d" x="-20%" y="-30%" width="140%" height="160%"><feGaussianBlur in="SourceAlpha" stdDeviation=".25"/><feOffset dy=".55"/><feComponentTransfer result="s"><feFuncA type="linear" slope=".25"/></feComponentTransfer><feMerge><feMergeNode in="s"/><feMergeNode in="SourceGraphic"/></feMerge></filter><filter id="g"><feGaussianBlur stdDeviation=".7"/></filter></defs><svg class="m" viewBox="0 0 40 40"><circle cx="20" cy="20" r="17" fill="none" stroke="#000" stroke-opacity=".1" stroke-width="2" filter="url(#g)"/><g filter="url(#d)"><circle cx="3" cy="18.8" r=".9" fill="url(#h)"/><circle cx="4.7" cy="12.6" r=".9" fill="url(#h)"/><path d="M3 18.8L2.5 17.6L2.6 16.5L2.8 15.4L3.1 14.3L3.7 13.3L4.7 12.6L4.7 12.6L4.9 13.8L4.6 14.8L4.4 15.8L4.1 16.8L3.8 17.8L3 18.8Z" fill="url(#t)"/><path d="M3.6 16.7L3.8 15.7L4.1 14.7" fill="none" stroke="#fff" stroke-width=".32" stroke-linecap="round" opacity=".6"/><circle cx="6" cy="10.4" r=".9" fill="url(#h)"/><circle cx="10.4" cy="6" r=".9" fill="url(#h)"/><path d="M6 10.4L6.1 9.1L6.7 8.2L7.4 7.4L8.2 6.7L9.1 6.1L10.4 6L10.4 6L9.9 7.1L9.3 7.9L8.5 8.5L7.9 9.3L7.1 9.9L6 10.4Z" fill="url(#t)"/><path d="M7.4 8.9L8.1 8.1L8.9 7.4" fill="none" stroke="#fff" stroke-width=".32" stroke-linecap="round" opacity=".6"/><circle cx="12.6" cy="4.7" r=".9" fill="url(#h)"/><circle cx="18.8" cy="3" r=".9" fill="url(#h)"/><path d="M12.6 4.7L13.3 3.7L14.3 3.1L15.4 2.8L16.5 2.6L17.6 2.5L18.8 3L18.8 3L17.8 3.8L16.8 4.1L15.8 4.4L14.8 4.6L13.8 4.9L12.6 4.7Z" fill="url(#t)"/><path d="M14.7 4.1L15.7 3.8L16.7 3.6" fill="none" stroke="#fff" stroke-width=".32" stroke-linecap="round" opacity=".6"/><circle cx="21.3" cy="3" r=".9" fill="url(#h)"/><circle cx="27.4" cy="4.7" r=".9" fill="url(#h)"/><path d="M21.3 3L22.4 2.5L23.5 2.6L24.6 2.8L25.7 3.1L26.6 3.6L27.4 4.7L27.4 4.7L26.1 4.9L25.2 4.6L24.2 4.4L23.2 4.1L22.2 3.8L21.3 3Z" fill="url(#t)"/><path d="M23.3 3.6L24.3 3.8L25.3 4.1" fill="none" stroke="#fff" stroke-width=".32" stroke-linecap="round" opacity=".6"/><circle cx="29.6" cy="6" r=".9" fill="url(#h)"/><circle cx="34" cy="10.4" r=".9" fill="url(#h)"/><path d="M29.6 6L30.8 6.1L31.8 6.7L32.6 7.4L33.3 8.2L33.9 9.2L34 10.4L34 10.4L32.9 10L32.1 9.3L31.5 8.5L30.7 7.9L30 7.1L29.6 6Z" fill="url(#t)"/><path d="M31.1 7.4L31.9 8.1L32.6 8.9" fill="none" stroke="#fff" stroke-width=".32" stroke-linecap="round" opacity=".6"/><circle cx="35.4" cy="12.7" r=".9" fill="url(#h)"/><circle cx="36.9" cy="18.6" r=".9" fill="url(#h)"/><path d="M35.4 12.7L36.4 13.4L36.9 14.4L37.2 15.4L37.4 16.4L37.5 17.5L36.9 18.6L36.9 18.6L36.2 17.7L35.9 16.8L35.6 15.8L35.4 14.9L35.2 13.9L35.4 12.7Z" fill="url(#t)"/><path d="M35.9 14.7L36.2 15.7L36.4 16.6" fill="none" stroke="#fff" stroke-width=".32" stroke-linecap="round" opacity=".6"/><circle cx="36.9" cy="21.5" r=".9" fill="url(#h)"/><circle cx="35.4" cy="27.2" r=".9" fill="url(#h)"/><path d="M36.9 21.5L37.5 22.5L37.4 23.6L37.2 24.6L36.9 25.6L36.4 26.5L35.4 27.2L35.4 27.2L35.2 26.1L35.4 25.1L35.6 24.2L35.9 23.3L36.2 22.4L36.9 21.5Z" fill="url(#t)"/><path d="M36.4 23.4L36.2 24.3L35.9 25.3" fill="none" stroke="#fff" stroke-width=".32" stroke-linecap="round" opacity=".6"/><circle cx="34" cy="29.7" r=".9" fill="url(#h)"/><circle cx="29.7" cy="34" r=".9" fill="url(#h)"/><path d="M34 29.7L33.9 30.9L33.3 31.8L32.6 32.6L31.8 33.3L30.9 33.9L29.7 34L29.7 34L30.1 32.8L30.8 32.1L31.5 31.5L32.1 30.8L32.8 30.1L34 29.7Z" fill="url(#t)"/><path d="M32.5 31.1L31.9 31.9L31.1 32.5" fill="none" stroke="#fff" stroke-width=".32" stroke-linecap="round" opacity=".6"/><circle cx="27.2" cy="35.4" r=".9" fill="url(#h)"/><circle cx="21.4" cy="36.9" r=".9" fill="url(#h)"/><path d="M27.2 35.4L26.6 36.4L25.6 36.9L24.6 37.2L23.6 37.4L22.5 37.5L21.4 36.9L21.4 36.9L22.3 36.2L23.3 35.9L24.2 35.6L25.1 35.4L26.1 35.2L27.2 35.4Z" fill="url(#t)"/><path d="M25.3 35.9L24.3 36.2L23.4 36.4" fill="none" stroke="#fff" stroke-width=".32" stroke-linecap="round" opacity=".6"/><circle cx="18.8" cy="37" r=".9" fill="url(#h)"/><circle cx="12.6" cy="35.3" r=".9" fill="url(#h)"/><path d="M18.8 37L17.6 37.5L16.5 37.4L15.4 37.2L14.3 36.9L13.3 36.3L12.6 35.3L12.6 35.3L13.8 35.1L14.8 35.4L15.8 35.6L16.8 35.9L17.8 36.2L18.8 37Z" fill="url(#t)"/><path d="M16.7 36.4L15.7 36.2L14.7 35.9" fill="none" stroke="#fff" stroke-width=".32" stroke-linecap="round" opacity=".6"/><circle cx="10.4" cy="34" r=".9" fill="url(#h)"/><circle cx="6" cy="29.6" r=".9" fill="url(#h)"/><path d="M10.4 34L9.1 33.9L8.2 33.3L7.4 32.6L6.7 31.8L6.1 30.9L6 29.6L6 29.6L7.1 30.1L7.9 30.7L8.5 31.5L9.3 32.1L9.9 32.9L10.4 34Z" fill="url(#t)"/><path d="M8.9 32.6L8.1 31.9L7.4 31.1" fill="none" stroke="#fff" stroke-width=".32" stroke-linecap="round" opacity=".6"/><circle cx="4.7" cy="27.4" r=".9" fill="url(#h)"/><circle cx="3" cy="21.2" r=".9" fill="url(#h)"/><path d="M4.7 27.4L3.7 26.7L3.1 25.7L2.8 24.6L2.6 23.5L2.5 22.4L3 21.2L3 21.2L3.8 22.2L4.1 23.2L4.4 24.2L4.6 25.2L4.9 26.2L4.7 27.4Z" fill="url(#t)"/><path d="M4.1 25.3L3.8 24.3L3.6 23.3" fill="none" stroke="#fff" stroke-width=".32" stroke-linecap="round" opacity=".6"/></g></svg><g class="b"><circle class="g" cx="50%" cy="50%" fill="none" stroke="#000" stroke-opacity=".1" stroke-width="2" filter="url(#g)"/><g filter="url(#d)"><use class="s" href="#s" style="--i:0;--t:-.7deg;--o:0.05px;--f:0.99"/><use class="s" href="#s" style="--i:1;--t:.1deg;--o:-0.04px;--f:0.97"/><use class="s" href="#s" style="--i:2;--t:0deg;--o:-0.14px;--f:0.96"/><use class="s" href="#s" style="--i:3;--t:-.9deg;--o:-0.12px;--f:0.99"/><use class="s" href="#s" style="--i:4;--t:.7deg;--o:-0.11px;--f:0.99"/><use class="s" href="#s" style="--i:5;--t:.3deg;--o:0.13px;--f:0.98"/><use class="s" href="#s" style="--i:6;--t:-.2deg;--o:0.14px;--f:1.01"/><use class="s" href="#s" style="--i:7;--t:.7deg;--o:-0.06px;--f:0.96"/><use class="s" href="#s" style="--i:8;--t:-.8deg;--o:-0.06px;--f:0.97"/><use class="s" href="#s" style="--i:9;--t:-.6deg;--o:0.02px;--f:1.03"/><use class="s" href="#s" style="--i:10;--t:-.3deg;--o:0.01px;--f:1.01"/><use class="s" href="#s" style="--i:11;--t:-.9deg;--o:-0.09px;--f:0.97"/><use class="s" href="#s" style="--i:12;--t:-.1deg;--o:-0.06px;--f:1.01"/><use class="s" href="#s" style="--i:13;--t:-.1deg;--o:-0.06px;--f:1.01"/><use class="s" href="#s" style="--i:14;--t:.4deg;--o:-0.08px;--f:1.02"/><use class="s" href="#s" style="--i:15;--t:.1deg;--o:0.11px;--f:1.01"/><use class="s" href="#s" style="--i:16;--t:-.4deg;--o:0.14px;--f:1.02"/><use class="s" href="#s" style="--i:17;--t:-.2deg;--o:0.08px;--f:0.97"/><use class="s" href="#s" style="--i:18;--t:0deg;--o:-0.14px;--f:0.97"/><use class="s" href="#s" style="--i:19;--t:.5deg;--o:0.02px;--f:1.01"/><use class="s" href="#s" style="--i:20;--t:-.4deg;--o:0.06px;--f:1.03"/><use class="s" href="#s" style="--i:21;--t:.2deg;--o:-0.01px;--f:1.01"/><use class="s" href="#s" style="--i:22;--t:.9deg;--o:-0.01px;--f:1.03"/><use class="s" href="#s" style="--i:23;--t:-.9deg;--o:0.06px;--f:1.01"/><use class="s" href="#s" style="--i:24;--t:1deg;--o:0.10px;--f:1.01"/><use class="s" href="#s" style="--i:25;--t:-.2deg;--o:0.05px;--f:0.98"/><use class="s" href="#s" style="--i:26;--t:-.1deg;--o:-0.10px;--f:0.96"/><use class="s" href="#s" style="--i:27;--t:-.9deg;--o:0.08px;--f:0.97"/><use class="s" href="#s" style="--i:28;--t:-.5deg;--o:-0.03px;--f:0.97"/><use class="s" href="#s" style="--i:29;--t:-.8deg;--o:-0.02px;--f:1.03"/><use class="s" href="#s" style="--i:30;--t:.8deg;--o:0.10px;--f:1.00"/><use class="s" href="#s" style="--i:31;--t:-.4deg;--o:-0.03px;--f:1.03"/><use class="s" href="#s" style="--i:32;--t:-.7deg;--o:0.05px;--f:0.99"/><use class="s" href="#s" style="--i:33;--t:.1deg;--o:-0.04px;--f:0.97"/><use class="s" href="#s" style="--i:34;--t:0deg;--o:-0.14px;--f:0.96"/><use class="s" href="#s" style="--i:35;--t:-.9deg;--o:-0.12px;--f:0.99"/><use class="s" href="#s" style="--i:36;--t:.7deg;--o:-0.11px;--f:0.99"/><use class="s" href="#s" style="--i:37;--t:.3deg;--o:0.13px;--f:0.98"/><use class="s" href="#s" style="--i:38;--t:-.2deg;--o:0.14px;--f:1.01"/><use class="s" href="#s" style="--i:39;--t:.7deg;--o:-0.06px;--f:0.96"/><use class="s" href="#s" style="--i:40;--t:-.8deg;--o:-0.06px;--f:0.97"/><use class="s" href="#s" style="--i:41;--t:-.6deg;--o:0.02px;--f:1.03"/><use class="s" href="#s" style="--i:42;--t:-.3deg;--o:0.01px;--f:1.01"/><use class="s" href="#s" style="--i:43;--t:-.9deg;--o:-0.09px;--f:0.97"/><use class="s" href="#s" style="--i:44;--t:-.1deg;--o:-0.06px;--f:1.01"/><use class="s" href="#s" style="--i:45;--t:-.1deg;--o:-0.06px;--f:1.01"/><use class="s" href="#s" style="--i:46;--t:.4deg;--o:-0.08px;--f:1.02"/><use class="s" href="#s" style="--i:47;--t:.1deg;--o:0.11px;--f:1.01"/><use class="s" href="#s" style="--i:48;--t:-.4deg;--o:0.14px;--f:1.02"/><use class="s" href="#s" style="--i:49;--t:-.2deg;--o:0.08px;--f:0.97"/><use class="s" href="#s" style="--i:50;--t:0deg;--o:-0.14px;--f:0.97"/><use class="s" href="#s" style="--i:51;--t:.5deg;--o:0.02px;--f:1.01"/><use class="s" href="#s" style="--i:52;--t:-.4deg;--o:0.06px;--f:1.03"/><use class="s" href="#s" style="--i:53;--t:.2deg;--o:-0.01px;--f:1.01"/><use class="s" href="#s" style="--i:54;--t:.9deg;--o:-0.01px;--f:1.03"/><use class="s" href="#s" style="--i:55;--t:-.9deg;--o:0.06px;--f:1.01"/><use class="s" href="#s" style="--i:56;--t:1deg;--o:0.10px;--f:1.01"/><use class="s" href="#s" style="--i:57;--t:-.2deg;--o:0.05px;--f:0.98"/><use class="s" href="#s" style="--i:58;--t:-.1deg;--o:-0.10px;--f:0.96"/><use class="s" href="#s" style="--i:59;--t:-.9deg;--o:0.08px;--f:0.97"/><use class="s" href="#s" style="--i:60;--t:-.5deg;--o:-0.03px;--f:0.97"/><use class="s" href="#s" style="--i:61;--t:-.8deg;--o:-0.02px;--f:1.03"/><use class="s" href="#s" style="--i:62;--t:.8deg;--o:0.10px;--f:1.00"/><use class="s" href="#s" style="--i:63;--t:-.4deg;--o:-0.03px;--f:1.03"/><use class="s" href="#s" style="--i:64;--t:-.7deg;--o:0.05px;--f:0.99"/><use class="s" href="#s" style="--i:65;--t:.1deg;--o:-0.04px;--f:0.97"/><use class="s" href="#s" style="--i:66;--t:0deg;--o:-0.14px;--f:0.96"/><use class="s" href="#s" style="--i:67;--t:-.9deg;--o:-0.12px;--f:0.99"/><use class="s" href="#s" style="--i:68;--t:.7deg;--o:-0.11px;--f:0.99"/><use class="s" href="#s" style="--i:69;--t:.3deg;--o:0.13px;--f:0.98"/><use class="s" href="#s" style="--i:70;--t:-.2deg;--o:0.14px;--f:1.01"/><use class="s" href="#s" style="--i:71;--t:.7deg;--o:-0.06px;--f:0.96"/><use class="s" href="#s" style="--i:72;--t:-.8deg;--o:-0.06px;--f:0.97"/><use class="s" href="#s" style="--i:73;--t:-.6deg;--o:0.02px;--f:1.03"/><use class="s" href="#s" style="--i:74;--t:-.3deg;--o:0.01px;--f:1.01"/><use class="s" href="#s" style="--i:75;--t:-.9deg;--o:-0.09px;--f:0.97"/><use class="s" href="#s" style="--i:76;--t:-.1deg;--o:-0.06px;--f:1.01"/><use class="s" href="#s" style="--i:77;--t:-.1deg;--o:-0.06px;--f:1.01"/><use class="s" href="#s" style="--i:78;--t:.4deg;--o:-0.08px;--f:1.02"/></g></g></svg>